<?xml version="1.0" encoding="iso-8859-1"?>
<!-- Generator: Adobe Illustrator 19.0.0, SVG Export Plug-In . SVG Version: 6.00 Build 0)  -->
<svg version="1.1" id="Capa_1" xmlns="http://www.w3.org/2000/svg" xmlns:xlink="http://www.w3.org/1999/xlink" x="0px" y="0px"
	 viewBox="0 0 512 512" style="enable-background:new 0 0 512 512;" xml:space="preserve">
<path style="fill:#E64C3C;" d="M357.791,264.828H291.31L256,317.793l-35.31-52.966h-66.481c-16.914,0-30.623-13.709-30.623-30.623
	V30.623C123.586,13.709,137.295,0,154.209,0H357.8c16.905,0,30.614,13.709,30.614,30.623v203.591
	C388.414,251.118,374.705,264.828,357.791,264.828z"/>
<path style="fill:#FFFFFF;" d="M256,158.897c34.737,0,64.697,12.067,79.078,29.581c11.29-15.846,18.026-35.134,18.026-56.064
	c0-53.628-43.476-97.103-97.103-97.103s-97.103,43.476-97.103,97.103c0,20.93,6.735,40.218,18.026,56.064
	C191.303,170.964,221.263,158.897,256,158.897z"/>
<path style="fill:#DFCF93;" d="M441.379,211.862h-52.966v22.343c0,16.914-13.709,30.623-30.623,30.623H291.31L256,317.793
	l-35.31-52.966h-66.481c-16.914,0-30.623-13.709-30.623-30.623v-22.343H79.448H0V512h512V211.862H441.379z"/>
<path style="fill:#F9EAB0;" d="M388.414,211.862v22.343c0,16.914-13.709,30.623-30.623,30.623H291.31L256,317.793l-35.31-52.966
	h-66.481c-16.914,0-30.623-13.709-30.623-30.623v-22.343H0V512l230.965-151.322c15.201-9.957,34.869-9.957,50.07,0L512,512V211.862
	H388.414z"/>
<g>
	<polygon style="fill:#C7B87C;" points="310.36,379.895 512,512 512,211.862 	"/>
	<polygon style="fill:#C7B87C;" points="0,211.862 0,512 201.64,379.895 	"/>
</g>
<g>
	<circle style="fill:#4482C3;" cx="256" cy="97.103" r="26.483"/>
	<path style="fill:#4482C3;" d="M256,158.897c-34.781,0-64.777,12.103-79.148,29.643c17.593,24.77,46.451,40.978,79.148,40.978
		s61.555-16.207,79.148-40.978C320.777,170.999,290.781,158.897,256,158.897z"/>
</g>
<g>
	<polygon style="fill:#DFCF93;" points="123.586,109.586 0,211.862 123.586,211.862 	"/>
	<polygon style="fill:#DFCF93;" points="388.414,211.862 512,211.862 388.414,109.586 	"/>
</g>
<g>
</g>
<g>
</g>
<g>
</g>
<g>
</g>
<g>
</g>
<g>
</g>
<g>
</g>
<g>
</g>
<g>
</g>
<g>
</g>
<g>
</g>
<g>
</g>
<g>
</g>
<g>
</g>
<g>
</g>
</svg>
