<?xml version="1.0" encoding="iso-8859-1"?>
<!-- Generator: Adobe Illustrator 19.0.0, SVG Export Plug-In . SVG Version: 6.00 Build 0)  -->
<svg version="1.1" id="Capa_1" xmlns="http://www.w3.org/2000/svg" xmlns:xlink="http://www.w3.org/1999/xlink" x="0px" y="0px"
	 viewBox="0 0 464 464" style="enable-background:new 0 0 464 464;" xml:space="preserve">
<path style="fill:#78B9EB;" d="M104,80h256v248H104V80z"/>
<g>
	<path style="fill:#D8D7DA;" d="M104,432c0,17.673,14.327,32,32,32h192c17.673,0,32-14.327,32-32v-48H104V432z"/>
	<path style="fill:#D8D7DA;" d="M328,0H136c-17.673,0-32,14.327-32,32v32h256V32C360,14.327,345.673,0,328,0z"/>
</g>
<path style="fill:#78B9EB;" d="M296,272v-48h-24c-8.837,0-16-7.163-16-16v-96c0-8.837,7.163-16,16-16h88V64H104v80h88
	c8.837,0,16,7.163,16,16v96c0,8.837-7.163,16-16,16h-24v48l-32-48h-32v112h256V224h-32L296,272z"/>
<path style="fill:#FFE477;" d="M448,96H272c-8.837,0-16,7.163-16,16v96c0,8.837,7.163,16,16,16h24v48l32-48h120
	c8.837,0,16-7.163,16-16v-96C464,103.163,456.837,96,448,96z"/>
<path style="fill:#46F8FF;" d="M192,144H16c-8.837,0-16,7.163-16,16v96c0,8.837,7.163,16,16,16h120l32,48v-48h24
	c8.837,0,16-7.163,16-16v-96C208,151.163,200.837,144,192,144z"/>
<g>
	<path style="fill:#FFFFFF;" d="M224,416h16v16h-16V416z"/>
	<path style="fill:#FFFFFF;" d="M168,24h16v16h-16V24z"/>
	<path style="fill:#FFFFFF;" d="M200,24h16v16h-16V24z"/>
	<path style="fill:#FFFFFF;" d="M296,120h128v16H296V120z"/>
	<path style="fill:#FFFFFF;" d="M296,152h128v16H296V152z"/>
	<path style="fill:#FFFFFF;" d="M296,184h128v16H296V184z"/>
	<path style="fill:#FFFFFF;" d="M40,184h128v16H40V184z"/>
	<path style="fill:#FFFFFF;" d="M40,216h128v16H40V216z"/>
</g>
<g>
</g>
<g>
</g>
<g>
</g>
<g>
</g>
<g>
</g>
<g>
</g>
<g>
</g>
<g>
</g>
<g>
</g>
<g>
</g>
<g>
</g>
<g>
</g>
<g>
</g>
<g>
</g>
<g>
</g>
</svg>
