<?xml version="1.0"?>
<svg xmlns="http://www.w3.org/2000/svg" viewBox="0 0 64 64" width="512" height="512"><g id="Laptop_smartphone" data-name="Laptop smartphone"><path d="M4,38H2v2a6,6,0,0,0,6,6H54a6,6,0,0,0,6-6V38H4Z" style="fill:#a7a9ac"/><path d="M58,4V38H4V4A2.006,2.006,0,0,1,6,2H56A2.006,2.006,0,0,1,58,4Z" style="fill:#006df0"/><rect x="8" y="6" width="46" height="28" style="fill:#c2dff6"/><path d="M25,40a2,2,0,0,0,2,2h8a2,2,0,0,0,2-2V38H25Z" style="fill:#ffcd00"/><polygon points="8 6 8 33.922 41.717 6 8 6" style="fill:#d1e7f8"/><rect x="30" y="30" width="2" height="2" style="fill:#f1f2f2"/><rect x="34" y="30" width="2" height="2" style="fill:#f1f2f2"/><rect x="26" y="30" width="2" height="2" style="fill:#f1f2f2"/><path d="M59,27.54A3.989,3.989,0,0,0,57,27H55v2a1,1,0,0,1-1,1H48a1,1,0,0,1-1-1V27H45a4,4,0,0,0-4,4V57a4,4,0,0,0,4,4H57a4,4,0,0,0,4-4V31A3.98,3.98,0,0,0,59,27.54Z" style="fill:#ff3051"/><path d="M47,29a1,1,0,0,0,1,1h6a1,1,0,0,0,1-1V27H47Z" style="fill:#ffcd00"/><path d="M59,27.54A3.989,3.989,0,0,0,57,27H55v2a1,1,0,0,1-1,1H48a1,1,0,0,1-1-1V27H45a4,4,0,0,0-4,4V47L59.827,28.173A4,4,0,0,0,59,27.54Z" style="fill:#ff4764"/><rect x="50" y="55" width="2" height="2" style="fill:#f1f2f2"/><rect x="54" y="55" width="2" height="2" style="fill:#f1f2f2"/><rect x="46" y="55" width="2" height="2" style="fill:#f1f2f2"/></g></svg>
