<svg height="640pt" viewBox="0 -52 640 640" width="640pt" xmlns="http://www.w3.org/2000/svg"><path d="m253.089844 20.621094 68.394531 86.640625h-174.46875c-31.152344 0-56.371094 25.21875-56.371094 56.371093v371.777344h-34.273437c-31.152344 0-56.371094-25.21875-56.371094-56.378906v-422.660156c0-31.152344 25.21875-56.371094 56.371094-56.371094h153.105468c16.765626 0 32.785157 7.5625 43.613282 20.621094zm0 0" fill="#00efd1"/><path d="m640 160.816406v318.367188c0 31.152344-25.21875 56.371094-56.371094 56.371094h-507.816406v-374.738282c0-31.152344 25.21875-56.371094 56.371094-56.371094h451.445312c31.152344 0 56.371094 25.21875 56.371094 56.371094zm0 0" fill="#00acea"/><path d="m480.816406 238.847656c-4.449218-2.667968-9.792968-2.816406-14.390625-.445312l-61.863281 32.644531v-19.585937c0-8.160157-6.675781-14.835938-14.835938-14.835938h-157.109374c-8.160157 0-14.980469 6.53125-14.980469 14.835938v139.304687c0 8.160156 6.820312 14.980469 14.980469 14.980469h157.109374c8.160157 0 14.835938-6.820313 14.835938-14.980469v-25.070313l61.121094 37.828126c2.371094 1.484374 5.042968 2.226562 7.863281 2.226562 2.523437 0 4.597656-.59375 6.824219-1.925781 4.746094-2.671875 7.269531-7.570313 7.269531-12.910157v-139.453124c0-5.046876-2.371094-9.941407-6.824219-12.613282zm-105.925781 137.230469h-127.585937v-109.785156h127.585937zm83.078125-11.722656-53.40625-33.527344v-26.257813l53.40625-28.480468zm0 0" fill="#083863"/></svg>